<?xml version="1.0" standalone="no"?>
<!DOCTYPE svg PUBLIC "-//W3C//DTD SVG 20010904//EN"
 "http://www.w3.org/TR/2001/REC-SVG-20010904/DTD/svg10.dtd">
<svg version="1.0" xmlns="http://www.w3.org/2000/svg"
 width="264.000000pt" height="146.000000pt" viewBox="0 0 264.000000 146.000000"
 preserveAspectRatio="xMidYMid meet">

<g transform="translate(0.000000,146.000000) scale(0.100000,-0.100000)"
fill="#000000" stroke="none">
<path d="M1220 1340 c-77 -9 -189 -44 -271 -86 -249 -125 -417 -379 -442 -669
-5 -58 2 -43 32 70 45 167 140 310 274 411 334 251 800 225 1092 -61 112 -110
170 -213 216 -380 l20 -70 -5 76 c-8 107 -62 253 -136 363 -45 66 -154 173
-222 216 -72 47 -208 105 -279 119 -82 16 -196 20 -279 11z"/>
<path d="M1255 1160 c-218 -25 -404 -128 -525 -288 -27 -37 -61 -91 -75 -120
-28 -59 -70 -210 -61 -219 3 -4 17 0 31 7 22 12 30 11 61 -3 32 -16 36 -16 60
0 23 15 28 15 58 0 30 -14 36 -14 65 1 30 14 35 14 62 -2 29 -17 31 -17 61 2
l31 20 29 -21 28 -21 28 21 c25 18 31 19 53 7 32 -18 60 -17 87 2 20 14 25 14
52 -3 25 -14 34 -15 48 -5 32 23 41 24 57 8 19 -19 58 -21 85 -4 16 10 25 9
50 -5 29 -17 31 -17 60 0 29 16 31 16 59 0 28 -16 32 -16 64 -1 30 15 37 15
63 1 25 -13 32 -13 59 0 28 14 35 13 61 0 27 -14 33 -14 62 0 28 13 37 14 57
3 14 -7 27 -11 30 -8 11 11 -25 140 -59 213 -81 175 -233 310 -422 376 -49 16
-237 52 -254 48 -3 -1 -32 -5 -65 -9z"/>
<path d="M1977 434 c-4 -4 -7 -90 -7 -191 l0 -183 25 0 25 0 -2 187 c-3 160
-5 188 -18 191 -9 1 -19 0 -23 -4z"/>
<path d="M752 378 c-6 -6 -12 -22 -12 -35 0 -14 -6 -23 -15 -23 -8 0 -15 -7
-15 -15 0 -8 8 -15 18 -15 15 0 17 -11 17 -94 0 -115 14 -139 79 -134 29 2 42
8 44 20 3 15 -2 17 -26 12 -18 -4 -32 -1 -37 6 -4 6 -9 52 -11 101 l-4 89 36
0 c42 0 43 23 1 28 -18 2 -27 10 -28 23 -3 40 -4 44 -19 47 -9 1 -21 -3 -28
-10z"/>
<path d="M1207 315 c-16 -8 -29 -10 -32 -4 -9 13 -42 11 -47 -3 -2 -7 -4 -65
-4 -128 l1 -115 25 0 c25 0 25 1 28 94 1 52 8 101 14 108 5 7 24 12 41 10 22
-1 32 3 35 15 5 26 -30 39 -61 23z"/>
<path d="M2460 320 c-19 -4 -43 -11 -52 -15 -11 -4 -18 -3 -18 5 0 6 -10 10
-22 8 -22 -3 -23 -6 -23 -128 0 -122 1 -125 23 -128 21 -3 22 -1 22 88 0 83 2
93 25 115 29 30 65 32 88 7 13 -15 17 -39 17 -116 0 -95 0 -97 23 -94 21 3 22
8 25 94 1 50 -2 103 -7 117 -14 35 -57 55 -101 47z"/>
<path d="M80 313 c0 -5 19 -62 43 -128 28 -80 48 -121 59 -123 12 -2 25 21 54
93 l38 96 36 -93 c51 -129 62 -127 116 27 41 114 44 145 12 133 -7 -3 -26 -45
-42 -94 -16 -49 -31 -84 -33 -79 -37 101 -71 170 -84 173 -12 2 -25 -19 -49
-80 -18 -46 -36 -86 -39 -90 -3 -3 -19 34 -36 83 -25 78 -32 89 -52 89 -13 0
-23 -3 -23 -7z"/>
<path d="M523 310 c-13 -5 -23 -17 -23 -26 0 -12 5 -15 23 -9 55 17 68 17 87
0 11 -10 20 -22 20 -26 0 -4 -24 -15 -54 -23 -85 -25 -120 -88 -80 -144 18
-26 78 -30 111 -7 19 13 22 13 27 0 3 -8 15 -15 27 -15 20 0 21 4 17 111 -3
102 -5 112 -27 130 -25 20 -89 25 -128 9z m107 -125 c0 -57 -44 -104 -80 -85
-20 11 -26 45 -12 67 7 11 68 42 85 43 4 0 7 -11 7 -25z"/>
<path d="M903 285 c-34 -34 -35 -37 -31 -100 3 -54 9 -70 30 -92 46 -45 178
-43 178 3 0 11 -5 14 -17 9 -54 -21 -82 -18 -113 14 -52 51 -39 65 59 69 l83
3 -6 42 c-9 58 -43 87 -103 87 -38 0 -50 -5 -80 -35z m119 -12 c10 -9 18 -24
18 -35 0 -15 -8 -18 -60 -18 -33 0 -60 4 -60 9 0 4 9 20 21 35 23 30 54 33 81
9z"/>
<path d="M1300 189 c0 -130 0 -130 23 -127 21 3 22 8 25 101 2 89 5 98 26 112
34 23 72 10 85 -27 6 -17 11 -67 11 -110 0 -77 1 -79 23 -76 21 3 22 7 23 97
1 85 3 96 24 113 27 22 39 23 68 2 20 -14 22 -23 22 -115 0 -99 0 -99 25 -99
l25 0 0 104 c0 89 -3 107 -21 130 -16 20 -29 26 -60 26 -22 0 -52 -6 -67 -14
-24 -12 -30 -12 -47 0 -23 17 -97 18 -113 2 -9 -9 -15 -9 -24 0 -7 7 -20 12
-30 12 -16 0 -18 -12 -18 -131z"/>
<path d="M1764 301 c-73 -45 -69 -187 7 -226 32 -17 96 -19 134 -5 30 11 29
37 -1 32 -78 -14 -81 -14 -107 10 -14 12 -27 34 -29 48 -3 25 -2 25 80 28 l82
3 0 34 c0 21 -9 44 -26 64 -21 26 -33 31 -67 31 -24 0 -56 -8 -73 -19z m98
-23 c9 -7 19 -23 23 -35 6 -22 4 -23 -54 -23 -54 0 -61 2 -61 19 0 22 35 51
60 51 9 0 23 -6 32 -12z"/>
<path d="M2114 301 c-53 -32 -69 -115 -36 -181 21 -43 53 -60 114 -60 39 0 54
6 80 29 31 28 33 33 33 101 0 68 -2 73 -33 101 -26 23 -41 29 -80 29 -29 0
-59 -7 -78 -19z m116 -29 c28 -22 38 -104 18 -142 -33 -61 -110 -49 -128 20
-27 100 42 177 110 122z"/>
</g>
</svg>
